<?xml version="1.0" standalone="no"?>
<!DOCTYPE svg PUBLIC "-//W3C//DTD SVG 20010904//EN"
 "http://www.w3.org/TR/2001/REC-SVG-20010904/DTD/svg10.dtd">
<svg version="1.0" xmlns="http://www.w3.org/2000/svg"
 width="960.000000pt" height="960.000000pt" viewBox="0 0 960.000000 960.000000"
 preserveAspectRatio="xMidYMid meet">
<metadata>
Created by potrace 1.14, written by Peter Selinger 2001-2017
</metadata>
<g transform="translate(0.000000,960.000000) scale(0.100000,-0.100000)"
fill="#000000" stroke="none">
<path d="M23 7430 c-17 -5 -18 -104 -18 -2678 l0 -2673 1295 4 c712 1 1306 6
1319 10 13 3 47 9 75 12 56 5 82 10 166 26 30 7 62 13 70 14 8 2 15 4 15 5 0
1 11 3 25 6 84 15 286 91 400 151 185 98 326 208 449 349 33 38 161 226 161
237 0 3 15 38 34 79 46 102 71 178 92 283 2 11 6 31 9 45 24 119 24 393 0 525
-26 140 -87 314 -143 405 -12 19 -31 52 -42 73 -11 20 -25 37 -30 37 -6 0 -10
5 -10 12 0 23 -168 202 -232 246 -13 9 -31 24 -41 33 -23 21 -201 120 -247
137 -67 25 -185 61 -215 66 -16 2 -43 7 -60 10 -16 3 -50 8 -75 10 -25 3 -48
5 -52 5 -5 1 -8 12 -8 25 0 24 11 32 57 40 104 21 396 153 433 197 3 3 10 8
17 10 16 6 110 87 161 139 74 76 196 262 208 315 1 6 9 27 18 48 9 20 13 37 9
37 -5 0 -3 4 3 8 12 8 46 158 48 209 1 18 3 33 6 33 7 0 4 266 -4 320 -25 169
-64 299 -129 425 -22 44 -44 82 -47 85 -3 3 -12 17 -20 31 -46 82 -266 309
-299 309 -5 0 -11 4 -13 8 -3 9 -96 72 -104 72 -3 0 -18 8 -32 18 -42 28 -221
107 -287 127 -33 9 -71 21 -85 26 -14 4 -43 13 -65 18 -39 10 -53 13 -125 25
-35 6 -69 12 -112 20 -26 5 -106 13 -223 22 -94 8 -2325 11 -2352 4z m2157
-923 c14 -3 39 -8 55 -10 17 -3 50 -11 75 -18 25 -7 47 -13 50 -14 20 -4 128
-60 167 -86 121 -84 223 -235 239 -355 2 -17 7 -42 11 -55 12 -36 3 -226 -13
-276 -23 -71 -62 -149 -102 -203 -38 -51 -108 -120 -121 -120 -5 0 -11 -7 -15
-15 -3 -8 -12 -15 -21 -15 -8 0 -15 -4 -15 -8 0 -13 -137 -77 -205 -97 -61
-17 -70 -19 -140 -31 -52 -8 -1005 -14 -1006 -5 -1 8 -1 1271 0 1297 l1 22
508 -3 c279 -1 518 -5 532 -8z m90 -2090 c8 -3 29 -8 45 -11 68 -11 93 -18
160 -43 111 -41 234 -122 317 -208 42 -44 118 -173 135 -230 34 -114 46 -269
30 -378 -23 -150 -118 -302 -244 -388 -90 -62 -243 -117 -368 -133 -22 -3 -60
-8 -85 -12 -25 -4 -287 -7 -582 -8 -475 -1 -538 0 -539 14 -1 19 -1 1369 0
1391 1 15 49 16 559 14 306 -1 564 -4 572 -8z"/>
<path d="M4570 7432 c-10 -4 -5 -14 108 -212 100 -176 103 -182 132 -235 29
-53 175 -310 190 -335 5 -8 23 -42 41 -75 17 -33 38 -67 45 -76 8 -8 14 -18
14 -21 0 -4 25 -50 55 -103 30 -54 55 -101 55 -106 0 -5 5 -9 10 -9 6 0 10 -5
10 -11 0 -6 9 -23 20 -39 11 -15 17 -29 14 -32 -2 -3 2 -11 11 -18 8 -7 15
-16 15 -20 0 -4 22 -45 48 -91 27 -46 62 -109 79 -139 16 -30 53 -95 82 -144
28 -49 51 -90 51 -91 0 -2 32 -58 70 -124 39 -67 70 -126 70 -131 0 -6 4 -10
8 -10 4 0 13 -12 19 -27 7 -16 26 -53 44 -83 18 -30 41 -71 51 -90 10 -19 28
-51 39 -70 12 -19 32 -55 46 -80 13 -25 28 -52 33 -60 6 -8 53 -91 106 -185
52 -93 99 -175 105 -181 5 -6 7 -13 4 -16 -3 -3 1 -11 10 -18 8 -7 15 -16 15
-20 0 -3 32 -63 71 -131 39 -68 85 -149 102 -179 35 -64 59 -105 88 -157 12
-21 35 -61 50 -90 l29 -51 0 -946 0 -946 563 0 562 0 -1 942 -1 943 38 70 c58
109 127 229 139 243 6 6 9 12 6 12 -3 0 14 33 38 73 41 69 70 120 137 245 18
31 35 62 39 67 4 6 39 66 78 135 77 139 94 169 152 271 22 39 40 75 40 80 0 5
4 9 8 9 4 0 13 12 19 28 7 15 23 45 36 68 14 22 42 71 63 110 21 38 50 91 66
117 15 26 28 52 28 57 0 6 3 10 8 10 4 0 15 17 25 38 9 20 28 55 42 77 14 22
28 46 32 54 3 8 31 58 61 110 30 53 68 121 85 151 38 69 61 110 89 158 12 20
28 51 36 67 8 17 23 41 32 55 9 14 34 57 55 95 21 39 76 138 123 220 47 83 96
170 110 194 14 25 38 67 53 93 16 27 29 53 29 58 0 6 3 10 8 10 4 0 18 24 31
53 13 28 29 59 36 67 7 8 29 47 50 85 20 39 52 95 70 125 18 30 46 80 62 110
l30 55 -627 -1 c-345 0 -631 -4 -638 -8 -6 -3 -17 -19 -25 -34 -7 -15 -34 -65
-59 -112 -68 -127 -142 -268 -176 -333 -16 -31 -35 -64 -42 -72 -7 -8 -10 -15
-7 -15 3 0 -11 -30 -32 -67 -21 -38 -69 -126 -106 -198 -37 -71 -80 -152 -95
-180 -27 -50 -81 -152 -180 -340 -63 -119 -208 -392 -260 -490 -20 -38 -66
-124 -100 -190 -35 -66 -80 -151 -100 -189 -35 -67 -64 -92 -88 -77 -6 3 -33
49 -60 101 -27 52 -60 115 -74 140 -14 25 -57 106 -96 180 -39 74 -91 173
-116 220 -26 47 -58 108 -72 135 -14 28 -40 77 -58 110 -17 33 -65 123 -106
200 -119 228 -142 269 -151 280 -5 5 -9 17 -9 27 0 10 -3 18 -7 18 -5 0 -13
10 -18 23 -32 67 -121 232 -127 235 -5 2 -8 12 -8 22 0 10 -3 20 -7 22 -5 2
-35 55 -67 118 -33 63 -78 149 -100 190 -23 41 -54 100 -69 130 -34 67 -75
142 -82 149 -6 5 -1239 8 -1255 3z"/>
</g>
</svg>
